<?xml version="1.0" encoding="UTF-8"?>
<!--Generator: Apple Native CoreSVG 175.5-->
<!DOCTYPE svg
PUBLIC "-//W3C//DTD SVG 1.1//EN"
       "http://www.w3.org/Graphics/SVG/1.1/DTD/svg11.dtd">
<svg version="1.1" xmlns="http://www.w3.org/2000/svg" xmlns:xlink="http://www.w3.org/1999/xlink" width="258.443" height="545.963">
 <g>
  <rect height="545.963" opacity="0" width="258.443" x="0" y="0"/>
  <path d="M175.94 502.857C161.44 501.607 143.44 505.607 131.19 513.107C125.94 516.107 125.19 520.857 129.69 524.857C140.94 535.107 158.19 542.857 172.94 543.857C188.19 545.857 206.44 541.107 218.69 531.857C222.69 529.107 222.94 524.857 219.19 521.357C208.19 511.107 190.94 503.857 175.94 502.857ZM228.44 418.357C220.44 430.607 215.94 448.607 216.44 463.107C217.44 478.357 224.44 495.857 234.19 506.607C237.44 510.357 241.44 510.357 244.69 506.357C254.44 494.857 259.69 476.607 258.19 461.107C257.19 446.607 249.94 429.357 239.94 417.857C236.19 413.357 231.69 413.607 228.44 418.357ZM105.44 435.107C91.6895 430.107 72.9395 429.607 58.9395 433.857C53.4395 435.607 51.9395 439.857 54.9395 444.857C63.1895 457.607 77.9395 469.357 91.6895 474.357C105.69 480.107 124.69 480.107 138.94 474.107C143.69 472.357 144.94 468.607 142.19 464.107C134.19 451.357 119.44 439.857 105.44 435.107ZM177.44 367.107C166.69 376.857 157.44 392.857 154.69 407.107C151.44 422.107 153.69 440.857 160.44 453.607C162.44 458.357 166.44 459.107 170.69 456.107C182.69 447.357 192.44 431.107 194.94 415.607C197.94 401.357 195.44 382.607 188.69 369.107C186.44 363.607 181.69 362.857 177.44 367.107ZM0.1895 338.357C2.1895 352.857 10.9395 369.857 21.6895 380.357C32.1895 391.357 49.4395 398.857 64.9395 399.357C69.9395 399.607 72.6895 396.357 71.9395 391.357C69.4395 376.107 60.6895 359.857 49.9395 350.107C39.1895 339.857 22.6895 331.857 8.1895 330.107C2.1895 329.357-0.8105 332.607 0.1895 338.357ZM143.44 316.857C129.69 321.607 114.94 332.607 106.44 344.357C97.4395 356.107 92.1895 373.857 92.6895 389.357C93.1895 394.107 96.4395 396.607 101.44 395.857C116.44 392.357 132.19 381.607 140.19 368.607C148.44 355.857 153.94 338.107 152.94 323.357C152.94 317.357 149.19 314.857 143.44 316.857ZM101.69 258.357C89.9395 267.857 80.1895 283.857 77.1895 298.607C76.4395 303.107 78.9395 306.607 83.6895 306.857C99.1895 307.357 116.94 300.607 128.19 290.607C139.44 280.857 149.44 264.607 152.69 250.107C153.44 244.607 150.44 240.857 144.94 241.107C129.94 242.357 112.69 248.857 101.69 258.357ZM0.4395 225.607C-1.0605 240.357 2.9395 258.607 10.9395 271.607C18.4395 285.107 33.1895 296.857 47.6895 300.857C52.1895 302.357 56.1895 299.857 56.6895 294.857C58.1895 280.607 53.9395 262.357 45.9395 249.357C37.9395 236.857 23.6895 224.857 10.4395 219.607C5.1895 217.357 0.9395 219.607 0.4395 225.607ZM115.44 174.357C101.19 179.357 86.4395 190.607 78.4395 203.607C75.6895 207.607 77.1895 211.857 81.6895 213.857C95.9395 219.607 114.69 219.607 128.94 213.857C143.44 208.357 158.44 196.357 165.69 183.607C168.69 179.107 167.19 174.857 161.69 173.107C147.44 169.107 128.94 169.357 115.44 174.357ZM31.4395 108.857C24.9395 122.607 22.4395 141.107 25.1895 155.607C27.9395 170.857 37.6895 186.857 50.1895 195.857C53.9395 198.857 57.9395 197.607 60.4395 193.107C66.9395 180.107 69.1895 161.607 65.9395 146.857C62.9395 132.357 53.4395 116.357 42.9395 106.357C38.9395 102.857 34.1895 103.857 31.4395 108.857ZM160.69 102.357C145.94 105.107 129.69 114.607 120.44 126.107C117.44 129.607 118.19 133.857 122.19 136.607C135.44 144.357 154.19 146.857 168.94 142.857C183.69 139.607 199.94 129.857 209.44 118.857C213.19 114.357 212.19 109.857 206.94 107.607C193.69 101.607 175.44 99.3567 160.69 102.357ZM86.9395 25.3567C78.4395 38.1067 73.4395 56.3567 74.4395 70.8567C74.6895 86.1067 82.1895 103.357 93.1895 114.357C96.9395 117.857 101.19 117.357 103.94 113.357C112.19 100.607 117.19 82.3567 115.94 67.8567C114.94 53.6067 108.19 36.6067 98.6895 24.8567C94.6895 20.3567 90.1895 20.8567 86.9395 25.3567ZM215.94 0.106738C201.44 2.35674 184.94 11.1067 174.44 21.3567C163.94 31.6067 155.69 48.8567 153.94 63.3567C153.44 68.3567 156.19 71.3567 161.19 71.1067C176.44 70.3567 193.44 62.3567 203.94 50.6067C213.94 40.1067 222.19 23.3567 224.44 8.35674C224.94 2.60674 221.94-0.643262 215.94 0.106738Z" fill="#000000" fill-opacity="0.85"/>
 </g>
</svg>
